<?xml version="1.0" encoding="UTF-8" standalone="no"?>
<!-- Created with Inkscape (http://www.inkscape.org/) -->

<svg
   width="719.49231"
   height="720.49609"
   viewBox="0 0 190.36567 190.63126"
   version="1.1"
   id="svg1"
   inkscape:version="1.3 (0e150ed6c4, 2023-07-21)"
   sodipodi:docname="Icono_Version 3_Completo_Editable.svg"
   inkscape:export-filename="Icono_Version 3_Completo.png"
   inkscape:export-xdpi="96"
   inkscape:export-ydpi="96"
   xmlns:inkscape="http://www.inkscape.org/namespaces/inkscape"
   xmlns:sodipodi="http://sodipodi.sourceforge.net/DTD/sodipodi-0.dtd"
   xmlns:xlink="http://www.w3.org/1999/xlink"
   xmlns="http://www.w3.org/2000/svg"
   xmlns:svg="http://www.w3.org/2000/svg">
  <sodipodi:namedview
     id="namedview1"
     pagecolor="#ffffff"
     bordercolor="#000000"
     borderopacity="0.25"
     inkscape:showpageshadow="2"
     inkscape:pageopacity="0.0"
     inkscape:pagecheckerboard="0"
     inkscape:deskcolor="#d1d1d1"
     inkscape:document-units="px"
     inkscape:zoom="0.72426347"
     inkscape:cx="397.64535"
     inkscape:cy="514.3156"
     inkscape:window-width="1920"
     inkscape:window-height="1009"
     inkscape:window-x="-8"
     inkscape:window-y="-8"
     inkscape:window-maximized="1"
     inkscape:current-layer="layer1"
     showgrid="false">
    <inkscape:grid
       id="grid1"
       units="px"
       originx="-160.50375"
       originy="-160.0039"
       spacingx="0.26458333"
       spacingy="0.26458333"
       empcolor="#0099e5"
       empopacity="0.30196078"
       color="#0099e5"
       opacity="0.14901961"
       empspacing="5"
       dotted="false"
       gridanglex="30"
       gridanglez="30"
       visible="false" />
  </sodipodi:namedview>
  <defs
     id="defs1">
    <linearGradient
       id="linearGradient3"
       inkscape:collect="always">
      <stop
         style="stop-color:#ff0000;stop-opacity:1;"
         offset="0"
         id="stop3" />
      <stop
         style="stop-color:#ff7200;stop-opacity:1;"
         offset="1"
         id="stop4" />
    </linearGradient>
    <color-profile
       name="sRGB-IEC61966-2.1"
       xlink:href="../../../../WINDOWS/system32/spool/drivers/color/sRGB%20Color%20Space%20Profile.icm"
       id="color-profile1" />
    <linearGradient
       inkscape:collect="always"
       xlink:href="#linearGradient3"
       id="linearGradient2"
       x1="42.333332"
       y1="42.333332"
       x2="232.83333"
       y2="232.83333"
       gradientUnits="userSpaceOnUse" />
  </defs>
  <g
     inkscape:groupmode="layer"
     id="layer2"
     inkscape:label="Isotipo"
     transform="translate(-42.466618,-42.334366)">
    <path
       id="path3"
       style="fill:url(#linearGradient2);fill-opacity:1;stroke:none;stroke-width:0.264583px;stroke-linecap:butt;stroke-linejoin:miter;stroke-opacity:1"
       d="m 47.743855,42.334366 a 3.2683098,3.3230718 0 0 0 -2.922819,4.809009 l 15.614551,31.753617 a 11.47981,11.67216 0 0 0 10.268107,6.452319 H 185.2383 a 5.2882353,5.3768421 0 0 1 5.28805,5.376416 v 5.376933 a 5.2882339,5.3768407 0 0 1 -5.28805,5.37693 H 68.897086 a 8.137335,8.2736798 0 0 0 -7.436239,4.9134 l -16.170072,36.99257 a 32.766699,33.31572 0 0 0 -2.824117,13.58263 l 0.112655,73.5552 a 2.1405612,2.1764273 0 0 0 3.65404,1.53583 l 33.239831,-33.79639 a 18.054973,18.357492 0 0 0 5.288566,-12.98112 v -35.41076 a 5.2882378,5.3768447 0 0 1 5.28805,-5.37641 h 95.1885 a 12.766929,12.980845 0 0 0 9.02736,-3.80235 l 33.27859,-33.83566 A 18.055165,18.357688 0 0 0 232.8323,93.875406 V 69.218513 a 12.766932,12.980847 0 0 0 -3.73931,-9.178768 L 216.96763,47.711299 A 18.055155,18.357677 0 0 0 204.20045,42.334366 Z M 230.87014,124.82597 c -0.61254,-0.0738 -1.26417,0.10973 -1.7787,0.62425 L 195.79166,158.75 c -3.38819,3.38819 -5.29166,7.98381 -5.29166,12.77545 v 56.01621 c -1e-5,2.90601 2.38515,5.24588 5.29063,5.19038 l 31.75103,0.0868 a 5.2753548,5.2753548 0 0 0 5.2896,-5.2772 l -0.0362,-100.54218 c 0.009,-1.21272 -0.90404,-2.05042 -1.92495,-2.17351 z m -109.16181,39.34799 c -2.99557,0 -5.42396,2.42839 -5.42396,5.42395 v 57.94375 a 5.4239544,5.4239544 0 0 0 5.42396,5.42396 h 31.75 a 5.1593747,5.1593747 0 0 0 5.15938,-5.15937 v -58.47292 c 0,-2.84944 -2.30994,-5.15937 -5.15938,-5.15937 z"
       inkscape:export-filename="Isotipo_Version 3_Transparente.png"
       inkscape:export-xdpi="96"
       inkscape:export-ydpi="96" />
  </g>
</svg>
